{"accessors" : [{"bufferView" : 0, "byteOffset" : 0, "componentType" : 5123, "count" : 6864, "type" : "SCALAR", "max" : [1145], "min" : [0]}, {"bufferView" : 1, "byteOffset" : 0, "componentType" : 5126, "count" : 1146, "type" : "VEC3", "max" : [355.8349914550781, -22.75, 54.70199966430664], "min" : [348.1835021972656, -49.28329849243164, 45.957401275634766]}, {"bufferView" : 1, "byteOffset" : 12, "componentType" : 5126, "count" : 1146, "type" : "VEC2", "max" : [0, -0], "min" : [0, -0]}, {"bufferView" : 1, "byteOffset" : 20, "componentType" : 5126, "count" : 1146, "type" : "VEC3", "max" : [0.997717022895813, 0.9951608777046204, 0.9998783469200134], "min" : [-0.999826967716217, -0.9954497814178467, -0.9978987574577332]}, {"bufferView" : 0, "byteOffset" : 13728, "componentType" : 5123, "count" : 8772, "type" : "SCALAR", "max" : [1463], "min" : [0]}, {"bufferView" : 2, "byteOffset" : 0, "componentType" : 5126, "count" : 1464, "type" : "VEC3", "max" : [384.764892578125, -19.476900100708008, 54.71799850463867], "min" : [362.31719970703125, -28.690399169921875, 23.81130027770996]}, {"bufferView" : 2, "byteOffset" : 12, "componentType" : 5126, "count" : 1464, "type" : "VEC2", "max" : [0, -0], "min" : [0, -0]}, {"bufferView" : 2, "byteOffset" : 20, "componentType" : 5126, "count" : 1464, "type" : "VEC3", "max" : [0.9992318749427795, 0.9999654293060303, 0.9994524121284485], "min" : [-0.9990962743759155, -0.9999723434448242, -0.9987233877182007]}, {"bufferView" : 0, "byteOffset" : 31272, "componentType" : 5123, "count" : 5376, "type" : "SCALAR", "max" : [897], "min" : [0]}, {"bufferView" : 3, "byteOffset" : 0, "componentType" : 5126, "count" : 898, "type" : "VEC3", "max" : [354.1570129394531, -5.27370023727417, 52.62350082397461], "min" : [338.5262145996094, -25.268600463867188, 44.85390090942383]}, {"bufferView" : 3, "byteOffset" : 12, "componentType" : 5126, "count" : 898, "type" : "VEC2", "max" : [0, -0], "min" : [0, -0]}, {"bufferView" : 3, "byteOffset" : 20, "componentType" : 5126, "count" : 898, "type" : "VEC3", "max" : [0.9900895953178406, 0.9927435517311096, 0.9998356699943542], "min" : [-0.9995041489601135, -0.979632556438446, -0.9993070960044861]}, {"bufferView" : 0, "byteOffset" : 42024, "componentType" : 5123, "count" : 1932, "type" : "SCALAR", "max" : [347], "min" : [0]}, {"bufferView" : 4, "byteOffset" : 0, "componentType" : 5126, "count" : 348, "type" : "VEC3", "max" : [332.1922912597656, -13.531100273132324, 66.0613021850586], "min" : [330.6791076660156, -17.209999084472656, 65.65859985351562]}, {"bufferView" : 4, "byteOffset" : 12, "componentType" : 5126, "count" : 348, "type" : "VEC2", "max" : [1.1394000053405762, 0.5224999785423279], "min" : [-0.258899986743927, 0.18520000576972961]}, {"bufferView" : 4, "byteOffset" : 20, "componentType" : 5126, "count" : 348, "type" : "VEC3", "max" : [0.9950303435325623, 0.8354642391204834, 0.9957572221755981], "min" : [-0.9946164488792419, -0.9095355272293091, -0.998691201210022]}, {"bufferView" : 0, "byteOffset" : 45888, "componentType" : 5123, "count" : 2580, "type" : "SCALAR", "max" : [431], "min" : [0]}, {"bufferView" : 5, "byteOffset" : 0, "componentType" : 5126, "count" : 432, "type" : "VEC3", "max" : [332.92449951171875, -12.449299812316895, 66.14579772949219], "min" : [324.61468505859375, -16.067399978637695, 45.40340042114258]}, {"bufferView" : 5, "byteOffset" : 12, "componentType" : 5126, "count" : 432, "type" : "VEC2", "max" : [0, -0], "min" : [0, -0]}, {"bufferView" : 5, "byteOffset" : 20, "componentType" : 5126, "count" : 432, "type" : "VEC3", "max" : [0.9940460920333862, 0.9919323325157166, 0.992181658744812], "min" : [-0.9925898313522339, -0.9975326061248779, -0.9859748482704163]}, {"bufferView" : 0, "byteOffset" : 51048, "componentType" : 5123, "count" : 11688, "type" : "SCALAR", "max" : [1949], "min" : [0]}, {"bufferView" : 6, "byteOffset" : 0, "componentType" : 5126, "count" : 1950, "type" : "VEC3", "max" : [348.8302917480469, -18.691200256347656, 58.15250015258789], "min" : [330.5361022949219, -32.87409973144531, 43.4911003112793]}, {"bufferView" : 6, "byteOffset" : 12, "componentType" : 5126, "count" : 1950, "type" : "VEC2", "max" : [0, -0], "min" : [0, -0]}, {"bufferView" : 6, "byteOffset" : 20, "componentType" : 5126, "count" : 1950, "type" : "VEC3", "max" : [0.9960028529167175, 0.998731255531311, 0.9990260601043701], "min" : [-0.9999785423278809, -0.9999074339866638, -0.9999545216560364]}, {"bufferView" : 0, "byteOffset" : 74424, "componentType" : 5123, "count" : 8412, "type" : "SCALAR", "max" : [1403], "min" : [0]}, {"bufferView" : 7, "byteOffset" : 0, "componentType" : 5126, "count" : 1404, "type" : "VEC3", "max" : [341.75360107421875, -5.065700054168701, 121.92489624023438], "min" : [303.76568603515625, -37.8754997253418, 50.61800003051758]}, {"bufferView" : 7, "byteOffset" : 12, "componentType" : 5126, "count" : 1404, "type" : "VEC2", "max" : [0, -0], "min" : [0, -0]}, {"bufferView" : 7, "byteOffset" : 20, "componentType" : 5126, "count" : 1404, "type" : "VEC3", "max" : [0.9993935823440552, 0.9996083378791809, 0.9988465905189514], "min" : [-0.9998071193695068, -0.9996832609176636, -0.9994819760322571]}, {"bufferView" : 0, "byteOffset" : 91248, "componentType" : 5123, "count" : 4668, "type" : "SCALAR", "max" : [779], "min" : [0]}, {"bufferView" : 8, "byteOffset" : 0, "componentType" : 5126, "count" : 780, "type" : "VEC3", "max" : [373.07818603515625, -3.6819000244140625, 53.00740051269531], "min" : [362.198486328125, -20.665599822998047, 35.1609001159668]}, {"bufferView" : 8, "byteOffset" : 12, "componentType" : 5126, "count" : 780, "type" : "VEC2", "max" : [0, -0], "min" : [0, -0]}, {"bufferView" : 8, "byteOffset" : 20, "componentType" : 5126, "count" : 780, "type" : "VEC3", "max" : [0.9946253895759583, 0.9990651607513428, 0.9979681968688965], "min" : [-0.9966636300086975, -0.995209276676178, -0.9940282106399536]}, {"bufferView" : 0, "byteOffset" : 100584, "componentType" : 5123, "count" : 1356, "type" : "SCALAR", "max" : [227], "min" : [0]}, {"bufferView" : 9, "byteOffset" : 0, "componentType" : 5126, "count" : 228, "type" : "VEC3", "max" : [345.973388671875, -0.8079000115394592, 48.01649856567383], "min" : [340.943603515625, -7.254899978637695, 43.35350036621094]}, {"bufferView" : 9, "byteOffset" : 12, "componentType" : 5126, "count" : 228, "type" : "VEC2", "max" : [0, -0], "min" : [0, -0]}, {"bufferView" : 9, "byteOffset" : 20, "componentType" : 5126, "count" : 228, "type" : "VEC3", "max" : [0.9848877787590027, 0.9905185103416443, 0.9748295545578003], "min" : [-0.9986320734024048, -0.9276739954948425, -0.990715742111206]}, {"bufferView" : 0, "byteOffset" : 103296, "componentType" : 5123, "count" : 69282, "type" : "SCALAR", "max" : [11544], "min" : [0]}, {"bufferView" : 10, "byteOffset" : 0, "componentType" : 5126, "count" : 11545, "type" : "VEC3", "max" : [450.6777038574219, 59.10820007324219, 118.9386978149414], "min" : [247.73919677734375, -43.30149841308594, -36.86399841308594]}, {"bufferView" : 10, "byteOffset" : 12, "componentType" : 5126, "count" : 11545, "type" : "VEC2", "max" : [0, -0], "min" : [0, -0]}, {"bufferView" : 10, "byteOffset" : 20, "componentType" : 5126, "count" : 11545, "type" : "VEC3", "max" : [0.9997738599777222, 0.9989672303199768, 1.0000026226043701], "min" : [-0.9997386932373047, -0.9999697208404541, -0.9996251463890076]}, {"bufferView" : 0, "byteOffset" : 241860, "componentType" : 5123, "count" : 42744, "type" : "SCALAR", "max" : [7125], "min" : [0]}, {"bufferView" : 11, "byteOffset" : 0, "componentType" : 5126, "count" : 7126, "type" : "VEC3", "max" : [376.90350341796875, 3.5764999389648438, 54.8672981262207], "min" : [327.6423034667969, -40.81100082397461, 30.031400680541992]}, {"bufferView" : 11, "byteOffset" : 12, "componentType" : 5126, "count" : 7126, "type" : "VEC2", "max" : [0, -0], "min" : [0, -0]}, {"bufferView" : 11, "byteOffset" : 20, "componentType" : 5126, "count" : 7126, "type" : "VEC3", "max" : [0.9996564984321594, 0.9993118643760681, 0.9999771118164062], "min" : [-0.9988222718238831, -0.9997510313987732, -0.9998294711112976]}, {"bufferView" : 0, "byteOffset" : 327348, "componentType" : 5123, "count" : 6084, "type" : "SCALAR", "max" : [1015], "min" : [0]}, {"bufferView" : 12, "byteOffset" : 0, "componentType" : 5126, "count" : 1016, "type" : "VEC3", "max" : [363.5581970214844, -8.607500076293945, 52.26599884033203], "min" : [331.69171142578125, -20.832000732421875, 39.42359924316406]}, {"bufferView" : 12, "byteOffset" : 12, "componentType" : 5126, "count" : 1016, "type" : "VEC2", "max" : [0, -0], "min" : [0, -0]}, {"bufferView" : 12, "byteOffset" : 20, "componentType" : 5126, "count" : 1016, "type" : "VEC3", "max" : [0.9963904023170471, 0.9981876611709595, 0.9965828061103821], "min" : [-0.9982314109802246, -0.99754399061203, -0.9986526966094971]}, {"bufferView" : 0, "byteOffset" : 339516, "componentType" : 5123, "count" : 1452, "type" : "SCALAR", "max" : [243], "min" : [0]}, {"bufferView" : 13, "byteOffset" : 0, "componentType" : 5126, "count" : 244, "type" : "VEC3", "max" : [341.3387145996094, -1.9315999746322632, 47.08729934692383], "min" : [335.69891357421875, -6.866000175476074, 40.202301025390625]}, {"bufferView" : 13, "byteOffset" : 12, "componentType" : 5126, "count" : 244, "type" : "VEC2", "max" : [0, -0], "min" : [0, -0]}, {"bufferView" : 13, "byteOffset" : 20, "componentType" : 5126, "count" : 244, "type" : "VEC3", "max" : [0.9953758120536804, 0.9958975315093994, 0.9724154472351074], "min" : [-0.9981810450553894, -0.9645359516143799, -0.9955241084098816]}], "asset" : {"generator" : "Aspose.3D 21.2.1", "version" : "2.0"}, "buffers" : [{"uri" : "buffer.bin", "byteLength" : 5821196}], "bufferViews" : [{"buffer" : 0, "byteOffset" : 0, "byteLength" : 342420, "target" : 34963}, {"buffer" : 0, "byteOffset" : 342424, "byteLength" : 219648, "byteStride" : 32, "target" : 34962}, {"buffer" : 0, "byteOffset" : 562076, "byteLength" : 280704, "byteStride" : 32, "target" : 34962}, {"buffer" : 0, "byteOffset" : 842784, "byteLength" : 172032, "byteStride" : 32, "target" : 34962}, {"buffer" : 0, "byteOffset" : 1014820, "byteLength" : 61824, "byteStride" : 32, "target" : 34962}, {"buffer" : 0, "byteOffset" : 1076648, "byteLength" : 82560, "byteStride" : 32, "target" : 34962}, {"buffer" : 0, "byteOffset" : 1159212, "byteLength" : 374016, "byteStride" : 32, "target" : 34962}, {"buffer" : 0, "byteOffset" : 1533232, "byteLength" : 269184, "byteStride" : 32, "target" : 34962}, {"buffer" : 0, "byteOffset" : 1802420, "byteLength" : 149376, "byteStride" : 32, "target" : 34962}, {"buffer" : 0, "byteOffset" : 1951800, "byteLength" : 43392, "byteStride" : 32, "target" : 34962}, {"buffer" : 0, "byteOffset" : 1995196, "byteLength" : 2217024, "byteStride" : 32, "target" : 34962}, {"buffer" : 0, "byteOffset" : 4212224, "byteLength" : 1367808, "byteStride" : 32, "target" : 34962}, {"buffer" : 0, "byteOffset" : 5580036, "byteLength" : 194688, "byteStride" : 32, "target" : 34962}, {"buffer" : 0, "byteOffset" : 5774728, "byteLength" : 46464, "byteStride" : 32, "target" : 34962}], "meshes" : [{"primitives" : [{"attributes" : {"POSITION" : 1, "TEXCOORD_0" : 2, "NORMAL" : 3}, "indices" : 0, "mode" : 4}]}, {"primitives" : [{"attributes" : {"POSITION" : 5, "TEXCOORD_0" : 6, "NORMAL" : 7}, "indices" : 4, "mode" : 4}]}, {"primitives" : [{"attributes" : {"POSITION" : 9, "TEXCOORD_0" : 10, "NORMAL" : 11}, "indices" : 8, "mode" : 4}]}, {"primitives" : [{"attributes" : {"POSITION" : 13, "TEXCOORD_0" : 14, "NORMAL" : 15}, "indices" : 12, "mode" : 4}]}, {"primitives" : [{"attributes" : {"POSITION" : 17, "TEXCOORD_0" : 18, "NORMAL" : 19}, "indices" : 16, "mode" : 4}]}, {"primitives" : [{"attributes" : {"POSITION" : 21, "TEXCOORD_0" : 22, "NORMAL" : 23}, "indices" : 20, "mode" : 4}]}, {"primitives" : [{"attributes" : {"POSITION" : 25, "TEXCOORD_0" : 26, "NORMAL" : 27}, "indices" : 24, "mode" : 4}]}, {"primitives" : [{"attributes" : {"POSITION" : 29, "TEXCOORD_0" : 30, "NORMAL" : 31}, "indices" : 28, "mode" : 4}]}, {"primitives" : [{"attributes" : {"POSITION" : 33, "TEXCOORD_0" : 34, "NORMAL" : 35}, "indices" : 32, "mode" : 4}]}, {"primitives" : [{"attributes" : {"POSITION" : 37, "TEXCOORD_0" : 38, "NORMAL" : 39}, "indices" : 36, "mode" : 4}]}, {"primitives" : [{"attributes" : {"POSITION" : 41, "TEXCOORD_0" : 42, "NORMAL" : 43}, "indices" : 40, "mode" : 4}]}, {"primitives" : [{"attributes" : {"POSITION" : 45, "TEXCOORD_0" : 46, "NORMAL" : 47}, "indices" : 44, "mode" : 4}]}, {"primitives" : [{"attributes" : {"POSITION" : 49, "TEXCOORD_0" : 50, "NORMAL" : 51}, "indices" : 48, "mode" : 4}]}], "nodes" : [{"mesh" : 0, "name" : "Common_bile_duct"}, {"children" : [0], "name" : "RootNode"}, {"mesh" : 1, "name" : "Common_hepatic_artery"}, {"children" : [2], "name" : "RootNode"}, {"mesh" : 2, "name" : "Common_hepatic_duct"}, {"children" : [4], "name" : "RootNode"}, {"mesh" : 3, "name" : "ADDED_STRUCTURE_1"}, {"children" : [6], "name" : "RootNode"}, {"mesh" : 4, "name" : "Cystic_artery"}, {"children" : [8], "name" : "RootNode"}, {"mesh" : 5, "name" : "Cystic_duct"}, {"children" : [10], "name" : "RootNode"}, {"mesh" : 6, "name" : "Gallbladder"}, {"children" : [12], "name" : "RootNode"}, {"mesh" : 7, "name" : "Left_hepatic_artery"}, {"children" : [14], "name" : "RootNode"}, {"mesh" : 8, "name" : "Left_hepatic_duct"}, {"children" : [16], "name" : "RootNode"}, {"mesh" : 9, "name" : "Liver"}, {"children" : [18], "name" : "RootNode"}, {"mesh" : 10, "name" : "Portal_vein"}, {"children" : [20], "name" : "RootNode"}, {"mesh" : 11, "name" : "Right_hepatic_artery"}, {"children" : [22], "name" : "RootNode"}, {"mesh" : 12, "name" : "Right_hepatic_duct"}, {"children" : [24], "name" : "RootNode"}], "scene" : 0, "scenes" : [{"nodes" : [1, 3, 5, 7, 9, 11, 13, 15, 17, 19, 21, 23, 25]}]}